<svg width="36" height="36" viewBox="0 0 36 36" fill="none" xmlns="http://www.w3.org/2000/svg">
<g clip-path="url(#clip0_213_28)">
<path fill-rule="evenodd" clip-rule="evenodd" d="M18 34.5C27.1127 34.5 34.5 27.1127 34.5 18C34.5 8.8873 27.1127 1.5 18 1.5C8.8873 1.5 1.5 8.8873 1.5 18C1.5 27.1127 8.8873 34.5 18 34.5ZM18 36C27.9411 36 36 27.9411 36 18C36 8.05887 27.9411 0 18 0C8.05887 0 0 8.05887 0 18C0 27.9411 8.05887 36 18 36Z" fill="white"/>
<path d="M15.5417 20.4365C15.5417 19.066 15.5417 17.7934 15.5417 16.423C15.6396 14.661 16.6185 13.78 18.1848 14.4652C18.9679 14.7589 19.4573 14.8568 20.0446 14.5631C21.513 13.78 22.7855 14.3673 24.156 14.8568C25.037 15.1504 25.5264 15.8357 25.8201 16.7167C26.6032 19.2618 26.6032 21.8069 26.5053 24.352C26.5053 25.0372 26.2116 25.5267 25.4285 25.6246C25.2328 25.6246 25.1349 25.6246 24.9391 25.7224C22.1982 26.2119 21.9045 26.0161 22.1982 23.2752C22.2961 22.1006 22.4918 20.9259 22.1982 19.7512C22.0024 19.1639 21.8066 18.4787 21.0235 18.3808C20.3383 18.2829 19.8489 18.7723 19.4573 19.2618C19.0657 19.7512 18.9679 20.3385 18.9679 21.0238C18.9679 22.0027 18.9679 22.8837 18.9679 23.8626C18.9679 25.8203 18.87 25.9182 17.108 25.8203C15.4439 25.8203 15.4438 25.8203 15.4438 24.1562C15.5417 22.9816 15.5417 21.709 15.5417 20.4365Z" fill="white"/>
<path d="M10.158 20.2406C10.158 18.8701 10.158 17.5976 10.158 16.2271C10.158 15.0525 10.8432 14.8567 11.8221 14.7588C12.8989 14.7588 13.0946 15.3461 13.0946 16.2271C13.2904 18.7722 13.2904 21.3174 13.1925 23.8625C13.1925 24.7435 13.1925 25.8203 11.8221 25.8203C10.6474 25.9181 10.0601 25.4287 10.0601 24.254C10.0601 22.8836 10.0601 21.4152 10.0601 20.0448C10.0601 20.2406 10.158 20.2406 10.158 20.2406Z" fill="white"/>
<path d="M11.0391 9.375C12.5074 9.375 13.2906 9.96233 13.2906 10.8433C13.2906 11.9201 12.018 13.1927 11.0391 13.1927C10.0602 13.1927 9.375 12.4096 9.375 11.3328C9.47289 10.0602 10.0602 9.375 11.0391 9.375Z" fill="white"/>
</g>
<defs>
<clipPath id="clip0_213_28">
<rect width="36" height="36" fill="white"/>
</clipPath>
</defs>
</svg>
