<svg width="153" height="40" viewBox="0 0 153 40" fill="none" xmlns="http://www.w3.org/2000/svg">
<path d="M0 0H9.99999C15.5228 0 20 4.47715 20 9.99998C20 15.5228 15.5228 20 9.99998 20H0V0Z" fill="white"/>
<path d="M40 0H30C24.4772 0 20 4.47715 20 9.99998C20 15.5228 24.4772 20 30 20H40V0Z" fill="white"/>
<path d="M0 20H9.99999C15.5228 20 20 24.4771 20 30C20 35.5228 15.5228 40 9.99998 40H0V20Z" fill="white"/>
<path d="M40 20H30C24.4772 20 20 24.4771 20 30C20 35.5228 24.4772 40 30 40H40V20Z" fill="white"/>
<path d="M48.9653 0H56.1796C57.8797 0 59.22 0.405897 60.2003 1.21769C61.1959 2.02948 61.6936 3.15527 61.6936 4.59506C61.6936 5.37622 61.5098 6.07314 61.1422 6.68581C60.79 7.28317 60.2615 7.75799 59.5569 8.11028C60.3075 8.46257 60.8819 8.96037 61.2801 9.60368C61.6936 10.247 61.9004 11.0281 61.9004 11.9472C61.9004 13.5095 61.3873 14.7042 60.3611 15.5313C59.3502 16.3584 57.987 16.772 56.2715 16.772H48.9653V0ZM51.4237 9.35095V14.4744H56.2715C57.2671 14.4744 58.0329 14.2447 58.569 13.7852C59.1204 13.3104 59.3961 12.6824 59.3961 11.9012C59.3961 11.1047 59.1357 10.4844 58.615 10.0402C58.0942 9.5807 57.2518 9.35095 56.0877 9.35095H51.4237ZM51.4237 2.27455V7.03044H56.2485C57.2594 7.03044 58.0023 6.80069 58.4771 6.34118C58.9519 5.88168 59.1893 5.29964 59.1893 4.59506C59.1893 3.85985 58.9366 3.29313 58.4312 2.89489C57.9257 2.48133 57.1752 2.27455 56.1796 2.27455H51.4237Z" fill="white"/>
<path d="M69.8086 17.0247C68.9049 17.0247 68.0625 16.8562 67.2813 16.5192C66.5002 16.1823 65.8186 15.7228 65.2365 15.1407C64.6545 14.5587 64.195 13.8771 63.858 13.0959C63.521 12.3148 63.3525 11.4723 63.3525 10.5686C63.3525 9.68026 63.521 8.84549 63.858 8.06433C64.195 7.26785 64.6545 6.57859 65.2365 5.99655C65.8186 5.41451 66.5002 4.95501 67.2813 4.61804C68.0625 4.28106 68.9049 4.11258 69.8086 4.11258C70.697 4.11258 71.5317 4.28106 72.3129 4.61804C73.1094 4.95501 73.7986 5.41451 74.3807 5.99655C74.9627 6.57859 75.4222 7.26785 75.7592 8.06433C76.0962 8.84549 76.2647 9.68026 76.2647 10.5686C76.2647 11.4723 76.0962 12.3148 75.7592 13.0959C75.4222 13.8771 74.9627 14.5587 74.3807 15.1407C73.7986 15.7228 73.1094 16.1823 72.3129 16.5192C71.5317 16.8562 70.697 17.0247 69.8086 17.0247ZM69.8086 14.7042C70.3753 14.7042 70.8961 14.597 71.3709 14.3825C71.8611 14.1681 72.2823 13.8771 72.6346 13.5095C73.0022 13.1266 73.2855 12.69 73.4846 12.1999C73.6991 11.6944 73.8063 11.1507 73.8063 10.5686C73.8063 10.0019 73.6991 9.46582 73.4846 8.96037C73.2855 8.45491 73.0022 8.01838 72.6346 7.65078C72.2823 7.26785 71.8611 6.96917 71.3709 6.75474C70.8808 6.5403 70.36 6.43308 69.8086 6.43308C69.2419 6.43308 68.7134 6.5403 68.2233 6.75474C67.7485 6.96917 67.3273 7.26785 66.9597 7.65078C66.6074 8.01838 66.3317 8.45491 66.1325 8.96037C65.9334 9.46582 65.8339 10.0019 65.8339 10.5686C65.8339 11.1507 65.9334 11.6944 66.1325 12.1999C66.3317 12.69 66.6074 13.1266 66.9597 13.5095C67.3273 13.8771 67.7485 14.1681 68.2233 14.3825C68.7134 14.597 69.2419 14.7042 69.8086 14.7042Z" fill="white"/>
<path d="M76.4684 4.36531H79.0186L81.9135 13.3946L85.2909 4.36531H87.7033L91.0347 13.3946L94.0215 4.36531H96.5718L92.2524 16.772H89.886L86.4626 7.67375L83.0163 16.772H80.581L76.4684 4.36531Z" fill="white"/>
<path d="M103.355 17.0247C102.359 17.0247 101.456 16.8639 100.644 16.5422C99.8473 16.2052 99.158 15.7534 98.576 15.1867C97.994 14.6046 97.5421 13.923 97.2205 13.1419C96.9141 12.3607 96.761 11.5183 96.761 10.6146C96.761 9.69558 96.9218 8.84549 97.2434 8.06433C97.5804 7.26785 98.0399 6.57859 98.622 5.99655C99.204 5.41451 99.8856 4.95501 100.667 4.61804C101.448 4.28106 102.298 4.11258 103.217 4.11258C104.136 4.11258 104.978 4.27341 105.744 4.59506C106.525 4.9014 107.199 5.33793 107.766 5.90465C108.333 6.47138 108.777 7.14532 109.099 7.92648C109.42 8.69232 109.581 9.53475 109.581 10.4538V11.4877H99.1504C99.3342 12.4986 99.7937 13.3104 100.529 13.923C101.264 14.5204 102.206 14.8191 103.355 14.8191C104.228 14.8191 104.955 14.6353 105.538 14.2677C106.135 13.9001 106.617 13.4176 106.985 12.8202L109.03 14.0379C108.432 14.9416 107.674 15.6692 106.755 16.2206C105.836 16.7567 104.703 17.0247 103.355 17.0247ZM103.217 6.29523C102.221 6.29523 101.371 6.58625 100.667 7.16829C99.9622 7.73502 99.4874 8.47023 99.2423 9.37392H107.077C106.893 8.39364 106.457 7.63546 105.767 7.09937C105.093 6.56328 104.243 6.29523 103.217 6.29523Z" fill="white"/>
<path d="M111.266 4.36531H113.701V6.08845C114.13 5.4911 114.674 5.01627 115.333 4.66399C116.006 4.29638 116.78 4.11258 117.653 4.11258C118.434 4.11258 119.139 4.24277 119.767 4.50316C120.41 4.74823 120.946 5.10818 121.375 5.583C121.819 6.0425 122.156 6.61689 122.386 7.30615C122.631 7.98009 122.754 8.73827 122.754 9.5807V16.772H120.249V9.7645C120.249 8.70764 119.981 7.86521 119.445 7.23722C118.909 6.60923 118.12 6.29523 117.079 6.29523C116.604 6.29523 116.16 6.37948 115.746 6.54796C115.348 6.71645 114.996 6.96152 114.689 7.28317C114.398 7.58951 114.168 7.97243 114 8.43194C113.831 8.87613 113.747 9.37392 113.747 9.92533V16.772H111.266V4.36531Z" fill="white"/>
<path d="M48.9653 22.9753H59.9475V25.3647H51.4237V30.1436H59.9475V32.533H51.4237V37.3349H59.9475V39.7473H48.9653V22.9753Z" fill="white"/>
<path d="M65.6493 33.452L61.0773 27.3406H64.0641L67.1887 31.5681L70.3363 27.3406H73.2772L68.7051 33.4291L73.5529 39.7473H70.4971L67.1657 35.336L63.9032 39.7473H60.8705L65.6493 33.452Z" fill="white"/>
<path d="M79.9533 40C78.9577 40 78.054 39.8392 77.2422 39.5175C76.4457 39.1805 75.7564 38.7287 75.1744 38.162C74.5924 37.5799 74.1405 36.8983 73.8189 36.1172C73.5125 35.336 73.3594 34.4936 73.3594 33.5899C73.3594 32.6709 73.5202 31.8208 73.8418 31.0396C74.1788 30.2432 74.6383 29.5539 75.2204 28.9719C75.8024 28.3898 76.484 27.9303 77.2652 27.5933C78.0463 27.2564 78.8964 27.0879 79.8154 27.0879C80.7344 27.0879 81.5769 27.2487 82.3427 27.5704C83.1239 27.8767 83.7978 28.3132 84.3645 28.88C84.9313 29.4467 85.3754 30.1206 85.6971 30.9018C86.0188 31.6676 86.1796 32.5101 86.1796 33.4291V34.463H75.7488C75.9326 35.4739 76.3921 36.2857 77.1273 36.8983C77.8625 37.4957 78.8045 37.7944 79.9533 37.7944C80.8263 37.7944 81.5539 37.6106 82.1359 37.243C82.7333 36.8754 83.2158 36.3929 83.5834 35.7955L85.6282 37.0132C85.0308 37.9169 84.2726 38.6445 83.3536 39.1959C82.4346 39.732 81.3012 40 79.9533 40ZM79.8154 29.2705C78.8198 29.2705 77.9697 29.5616 77.2652 30.1436C76.5606 30.7103 76.0858 31.4455 75.8407 32.3492H83.6753C83.4915 31.3689 83.0549 30.6108 82.3657 30.0747C81.6917 29.5386 80.8417 29.2705 79.8154 29.2705Z" fill="white"/>
<path d="M93.9068 40C92.9878 40 92.1301 39.8315 91.3336 39.4945C90.5371 39.1576 89.8478 38.6981 89.2658 38.116C88.6838 37.534 88.2243 36.8524 87.8873 36.0712C87.5656 35.2901 87.4048 34.4476 87.4048 33.5439C87.4048 32.6249 87.5733 31.7748 87.9103 30.9937C88.2472 30.2125 88.7067 29.5309 89.2888 28.9489C89.8708 28.3668 90.5524 27.915 91.3336 27.5933C92.1301 27.2564 92.9801 27.0879 93.8838 27.0879C94.5731 27.0879 95.2164 27.1798 95.8138 27.3636C96.4264 27.5474 96.9855 27.8078 97.491 28.1447C97.9964 28.4817 98.4406 28.8876 98.8235 29.3624C99.2218 29.8219 99.5358 30.3274 99.7655 30.8788L97.5369 31.8438C97.2153 31.0779 96.7328 30.4806 96.0895 30.0517C95.4615 29.6228 94.7263 29.4084 93.8838 29.4084C93.3018 29.4084 92.7657 29.5156 92.2756 29.73C91.7854 29.9445 91.3566 30.2432 90.989 30.6261C90.6367 30.9937 90.3533 31.4302 90.1389 31.9357C89.9397 32.4411 89.8402 32.9772 89.8402 33.5439C89.8402 34.1107 89.9397 34.6468 90.1389 35.1522C90.3533 35.6577 90.6443 36.1019 91.0119 36.4848C91.3795 36.8524 91.8084 37.1434 92.2985 37.3578C92.804 37.5723 93.3478 37.6795 93.9298 37.6795C94.8182 37.6795 95.5687 37.4421 96.1814 36.9673C96.8094 36.4771 97.2765 35.8721 97.5829 35.1522L99.8344 36.0942C99.3443 37.243 98.5938 38.185 97.5829 38.9202C96.572 39.6401 95.3466 40 93.9068 40Z" fill="white"/>
<path d="M106.158 40C104.503 40 103.232 39.5175 102.344 38.5526C101.471 37.5723 101.034 36.2244 101.034 34.5089V27.3406H103.561V34.3481C103.561 35.4049 103.822 36.2474 104.343 36.8754C104.863 37.488 105.652 37.7944 106.709 37.7944C107.169 37.7944 107.597 37.7101 107.996 37.5416C108.409 37.3732 108.762 37.1357 109.053 36.8294C109.344 36.5078 109.573 36.1248 109.742 35.6806C109.91 35.2365 109.995 34.7387 109.995 34.1872V27.3406H112.476V39.7473H110.041V38.0471C109.612 38.6445 109.06 39.1193 108.386 39.4716C107.728 39.8239 106.985 40 106.158 40Z" fill="white"/>
<path d="M113.69 27.3406H116.148V24.6525L118.584 23.0672V27.3406H122.053V29.5692H118.584V35.6806C118.584 36.3699 118.729 36.8677 119.02 37.174C119.327 37.4804 119.725 37.6335 120.215 37.6335C120.69 37.6335 121.111 37.4727 121.479 37.1511L122.65 39.2188C122.298 39.4639 121.9 39.6477 121.456 39.7702C121.027 39.9081 120.552 39.977 120.031 39.977C118.791 39.977 117.833 39.6477 117.159 38.9891C116.485 38.3305 116.148 37.2353 116.148 35.7036V29.5692H113.69V27.3406Z" fill="white"/>
<path d="M123.629 27.3406H126.133V39.7473H123.629V27.3406ZM123.123 23.6186C123.123 23.1132 123.284 22.6919 123.606 22.355C123.943 22.018 124.364 21.8495 124.869 21.8495C125.39 21.8495 125.811 22.018 126.133 22.355C126.47 22.6919 126.638 23.1132 126.638 23.6186C126.638 24.1241 126.47 24.5453 126.133 24.8822C125.811 25.2192 125.39 25.3877 124.869 25.3877C124.348 25.3877 123.927 25.2192 123.606 24.8822C123.284 24.5453 123.123 24.1241 123.123 23.6186Z" fill="white"/>
<path d="M127.285 27.3406H129.904L133.465 36.6686L137.164 27.3406H139.738L134.591 39.7473H132.156L127.285 27.3406Z" fill="white"/>
<path d="M146.344 40C145.348 40 144.445 39.8392 143.633 39.5175C142.836 39.1805 142.147 38.7287 141.565 38.162C140.983 37.5799 140.531 36.8983 140.209 36.1172C139.903 35.336 139.75 34.4936 139.75 33.5899C139.75 32.6709 139.911 31.8208 140.232 31.0396C140.569 30.2432 141.029 29.5539 141.611 28.9719C142.193 28.3898 142.875 27.9303 143.656 27.5933C144.437 27.2564 145.287 27.0879 146.206 27.0879C147.125 27.0879 147.967 27.2487 148.733 27.5704C149.514 27.8767 150.188 28.3132 150.755 28.88C151.322 29.4467 151.766 30.1206 152.088 30.9018C152.409 31.6676 152.57 32.5101 152.57 33.4291V34.463H142.139C142.323 35.4739 142.783 36.2857 143.518 36.8983C144.253 37.4957 145.195 37.7944 146.344 37.7944C147.217 37.7944 147.944 37.6106 148.526 37.243C149.124 36.8754 149.606 36.3929 149.974 35.7955L152.019 37.0132C151.421 37.9169 150.663 38.6445 149.744 39.1959C148.825 39.732 147.692 40 146.344 40ZM146.206 29.2705C145.21 29.2705 144.36 29.5616 143.656 30.1436C142.951 30.7103 142.476 31.4455 142.231 32.3492H150.066C149.882 31.3689 149.445 30.6108 148.756 30.0747C148.082 29.5386 147.232 29.2705 146.206 29.2705Z" fill="white"/>
</svg>
